<svg xmlns="http://www.w3.org/2000/svg" xmlns:xlink="http://www.w3.org/1999/xlink" width="1390px" height="810px" viewBox="0 0 1390 810" preserveAspectRatio="xMidYMid meet" ><rect id="svgEditorBackground" x="0" y="0" width="1390" height="810" style="fill: none; stroke: none;"/><defs id="svgEditorDefs"><marker id="marker1" viewBox="199 512 256 48" markerUnits="strokeWidth" refX="327" refY="536" markerWidth="32" markerHeight="6" orient="auto"><ellipse cx="256" cy="533" style="fill:white;stroke:black;stroke-width:1px;" rx="57" ry="21" /><circle cx="256" cy="542" style="fill:black;stroke:black;stroke-width:1px;" r="12.2066" /><ellipse cx="398" cy="537" style="fill:white;stroke:black;stroke-width:1px;" rx="57" ry="23" /><circle cx="402" cy="547" style="fill:black;stroke:black;stroke-width:1px;" r="12.0416" /></marker><path id="svgEditorClosePathDefs" style="stroke:black;stroke-width:1px;fill:white;"/><linearGradient gradientUnits="objectBoundingBox" id="lgrd2-fire" spreadMethod="pad" x1="0%" x2="100%" y1="0%" y2="0%"><stop offset="0%" style="stop-color:rgb(255,255,0);stop-opacity:1"/><stop offset="100%" style="stop-color:rgb(255,0,0);stop-opacity:1"/></linearGradient></defs><ellipse id="e8_ellipse" cx="356" cy="482" style="fill:#FFDAB9;stroke:black;stroke-width:6px;" rx="203" ry="269" /><ellipse id="e2_ellipse" cx="284" cy="457" style="fill:white;stroke:black;stroke-width:6px;" rx="57" ry="21" /><circle id="e3_circle" cx="270" cy="454" style="fill:black;stroke:black;stroke-width:1px;" r="12.2066" /><ellipse id="e4_ellipse" cx="426" cy="461" style="fill:white;stroke:black;stroke-width:6px;" rx="57" ry="23" /><circle id="e5_circle" cx="440" cy="470" style="fill:black;stroke:black;stroke-width:1px;" r="12.0416" /><path d="M139,389c66.6420302512,-5.075203283500002,373.06538771989995,0.909413338600018,434,2c-39.065387719899945,-102.90941333860002,-32.22047954699997,-113.35613443969999,-104,-172c-89.77952045289999,-42.643865560300014,-133.5708702536,-37.00561476180002,-230,-1c-51.42912974640001,39.00561476179996,-77.6420302512,84.0752032835,-100,171Z" style="stroke:black;fill:khaki;stroke-width:6px;" id="e11_area3"/><path d="M531,288a169.8216577987,169.8216577987,0,0,0,146,-203" style="fill: none; stroke-width:6px;stroke:black;" id="e13_circleArc"/><path d="M673,85a175.50002,175.50002,0,0,1,-184,152" style="fill:none;stroke:black;stroke-width:6px;" id="e14_circleArc"/><path d="M229,226a122.742757,122.742757,0,0,1,-132,-146" style="fill:none;stroke:black;stroke-width:6px;" id="e15_circleArc"/><path d="M97,81a132.658714,132.658714,0,0,0,80,206" style="fill:none;stroke:black;stroke-width:6px;" id="e16_circleArc"/><path d="M162,389a716.5778840717,716.5778840717,0,0,1,-147,346" style="fill:none;stroke:black;stroke-width:6px;" id="e24_circleArc"/><path d="M151,464a533.305774,533.305774,0,0,1,-128,303" style="fill:none;stroke:black;stroke-width:6px;" id="e3_circleArc"/><path d="M154,510a533.305774,533.305774,0,0,1,-128,303" style="fill:none;stroke:black;stroke-width:6px;" id="e4_circleArc"/><path d="M554,412a448.4552487771,448.4552487771,0,0,0,282,313" style="fill:none;stroke:black;stroke-width:6px;" id="e25_circleArc"/><path d="M558,456a448.4552487771,448.4552487771,0,0,0,282,313" style="fill:none;stroke:black;stroke-width:6px;" id="e5_circleArc"/><path d="M558,492a448.4552487771,448.4552487771,0,0,0,282,313" style="fill:none;stroke:black;stroke-width:6px;" id="e1_circleArc"/><line id="e27_line" x1="341" y1="517" x2="319" y2="590" style="stroke:black;fill:none;stroke-width:6px;"/><path d="M319,589a21.5151659734,21.5151659734,0,0,0,43,0" style="fill:none;stroke:black;stroke-width:6px;" id="e28_circleArc"/><path d="M276,665c-5.416823303900003,-21.20878780069995,141.20052086549998,-32.329313997699956,140,-9c-1.2005208653999944,23.329313997699956,-3.1776775679999787,32.91210246979995,-18,43c-14.822322432000021,10.087897530200053,-84.46843728139999,2.9477011400000492,-98,-7c-13.531562718500027,-9.947701139900005,-18.583176696099997,-5.791212199300048,-24,-27Z" style="stroke:black;fill:white;stroke-width:6px;" id="e30_area3"/><line id="e31_line" x1="278" y1="661" x2="412" y2="672" style="stroke:black;fill:none;stroke-width:6px;"/><line id="e32_line" x1="323" y1="645" x2="310" y2="694" style="stroke:black;fill:none;stroke-width:6px;"/><line id="e2_line" x1="347" y1="646" x2="340" y2="704" style="stroke:black;fill:none;stroke-width:6px;" /><line id="e3_line" x1="385" y1="645" x2="378" y2="703" style="stroke:black;fill:none;stroke-width:6px;" /></svg>